<svg width="117" height="117" viewBox="0 0 117 117" fill="none" xmlns="http://www.w3.org/2000/svg">
<g clip-path="url(#clip0_174_403)">
<path d="M93.4394 0H23.5606C10.5485 0 0 10.5485 0 23.5606V93.4394C0 106.452 10.5485 117 23.5606 117H93.4394C106.452 117 117 106.452 117 93.4394V23.5606C117 10.5485 106.452 0 93.4394 0Z" fill="#EC4848"/>
<path d="M42.7343 33H21.6765" stroke="white" stroke-width="10.56" stroke-miterlimit="10" stroke-linejoin="bevel"/>
<path d="M87.3609 37.7141C80.8028 31.2072 70.8631 31.5659 64.7661 38.0215C62.8192 40.1222 60.7698 44.5797 59.3352 47.3976C57.9006 44.5797 55.8512 40.1222 53.9042 38.0215C47.8072 31.5659 37.8675 31.2072 31.3094 37.7141C26.2371 42.7352 26.1346 51.0866 28.8501 57.1323C29.7723 59.1818 30.9508 61.0262 32.3341 62.7682C36.0743 67.4819 41.2491 71.2221 46.0652 74.5524C52.7258 79.0611 59.3352 85.4655 59.3352 85.4655C59.3352 85.4655 65.9445 79.0611 72.6051 74.5524C77.4725 71.2733 82.596 67.4819 86.3362 62.7682C87.7196 61.0262 88.898 59.1305 89.8202 57.1323C92.5357 51.0353 92.4332 42.684 87.3609 37.7141Z" stroke="white" stroke-width="10.56" stroke-miterlimit="10" stroke-linejoin="bevel"/>
<path d="M42.7343 43.9668H21.6765" stroke="#EC4848" stroke-width="11.35" stroke-miterlimit="10" stroke-linejoin="bevel"/>
<path d="M70.058 55H49.0002" stroke="#EC4848" stroke-width="11.35" stroke-miterlimit="10" stroke-linejoin="bevel"/>
</g>
<defs>
<clipPath id="clip0_174_403">
<rect width="117" height="117" fill="white"/>
</clipPath>
</defs>
</svg>
